<?xml version="1.0" encoding="UTF-8"?>
<!DOCTYPE svg  PUBLIC '-//W3C//DTD SVG 1.1//EN'  'http://www.w3.org/Graphics/SVG/1.1/DTD/svg11.dtd'>
<svg width="502.1px" height="502.1px" enable-background="new 0 0 502.102 502.102" version="1.1" viewBox="0 0 502.102 502.102" xml:space="preserve" xmlns="http://www.w3.org/2000/svg">
	<path d="m39.62 288.94v-29.92h30.118v-0.201h52.901v60.043h37.259v-157.35h-30.118v-30.311h-30.124v-29.731h-37.073v30.125h-30.115v30.118h-29.92v157.16h37.072v-29.926zm0-90.156v-29.932h29.926v-30.124h22.969v29.731h30.13v53.099h-30.13v0.195h-52.895v-22.969zm169.82 120.08h90.172v-29.927h30.109v-67.388h-30.109v-22.777h30.109v-67.191h-30.109v-30.121h-127.24v217.4h37.072v6e-3zm0-150.02v-30.124h83.008v52.907h-83.008v-22.783zm0 90.169v-30.121h83.008v52.896h-83.008v-22.775zm162.67 29.919h-29.914v-157.35h29.926v-30.125h97.316v30.125h30.115v37.258h-37.268v-30.124h-83.023v112.95h0.201v30.121h82.821v-30.121h37.268v37.261h-30.115v29.927h-97.315v-29.927h-0.012zm-338.64 44.757v33.467h-33.479v-33.467h33.479zm0 33.467h33.47v33.479h-33.47v-33.479zm66.939-33.467v33.467h-33.47v-33.467h33.47zm0 33.467h33.479v33.479h-33.479v-33.479zm66.948-33.467v33.467h-33.476v-33.467h33.476zm0 33.467h33.473v33.479h-33.473v-33.479zm66.943-33.467v33.467h-33.47v-33.467h33.47zm0 33.467h33.479v33.479h-33.479v-33.479zm66.951-33.467v33.467h-33.473v-33.467h33.473zm0 33.467h33.479v33.479h-33.479v-33.479zm66.945-33.467v33.467h-33.467v-33.467h33.467zm0 33.467h33.479v33.479h-33.479v-33.479zm66.945-33.467v33.467h-33.467v-33.467h33.467zm66.952 0v33.467h-33.473v-33.467h33.473zm-66.952 33.467h33.473v33.479h-33.473v-33.479z"/>
</svg>
